<?xml version="1.0" encoding="iso-8859-1"?>
<!-- Generator: Adobe Illustrator 19.0.0, SVG Export Plug-In . SVG Version: 6.00 Build 0)  -->
<svg version="1.1" id="Layer_1" xmlns="http://www.w3.org/2000/svg" xmlns:xlink="http://www.w3.org/1999/xlink" x="0px" y="0px"
	 viewBox="0 0 512.058 512.058" style="enable-background:new 0 0 512.058 512.058;" xml:space="preserve">
<rect x="18.805" y="119.473" transform="matrix(0.9439 -0.3303 0.3303 0.9439 -57.2108 72.2559)" style="fill:#07A587;" width="330.428" height="170.014"/>
<rect x="58.26" y="68.527" transform="matrix(0.9778 -0.2097 0.2097 0.9778 -26.4768 49.347)" style="fill:#32BEA6;" width="322.431" height="162.016"/>
<path style="fill:#88D8C9;" d="M357.039,41.238l32.29,150.585L81.918,257.747L49.62,107.162L357.039,41.238 M363.175,31.741
	L40.131,101.018l35.65,166.234l323.052-69.284L363.175,31.741L363.175,31.741z"/>
<g>
	<path style="fill:#FFFFFF;" d="M208.574,98.609c-12.577,2.696-20.593,15.081-17.897,27.666s15.081,20.593,27.666,17.897
		c12.577-2.696,20.593-15.081,17.897-27.666C233.543,103.93,221.159,95.913,208.574,98.609L208.574,98.609z"/>
	<path style="fill:#FFFFFF;" d="M196.373,154.365c0,0-23.025,5.256-18.465,26.506l5.6,26.17l45.099-9.673l-32.25-43.003H196.373z"/>
	<path style="fill:#FFFFFF;" d="M242.56,144.46l-11.785,52.443l0,0l45.107-9.673l-5.6-26.17
		C265.729,139.82,242.568,144.46,242.56,144.46L242.56,144.46z"/>
	<polygon style="fill:#FFFFFF;" points="219.71,150.565 204.902,153.741 226.743,183.351 234.527,147.388 	"/>
</g>
<rect x="446.736" y="377.426" transform="matrix(0.7057 -0.7085 0.7085 0.7057 -169.2565 454.7224)" style="fill:#25B6D2;" width="32.002" height="107.35"/>
<ellipse style="fill:#415E72;" cx="338.126" cy="309.255" rx="132.864" ry="132.776"/>
<ellipse style="fill:#FFFFFF;" cx="338.126" cy="309.255" rx="110.607" ry="110.527"/>
<g>
</g>
<g>
</g>
<g>
</g>
<g>
</g>
<g>
</g>
<g>
</g>
<g>
</g>
<g>
</g>
<g>
</g>
<g>
</g>
<g>
</g>
<g>
</g>
<g>
</g>
<g>
</g>
<g>
</g>
</svg>
