<?xml version="1.0" encoding="iso-8859-1"?>
<!-- Generator: Adobe Illustrator 19.0.0, SVG Export Plug-In . SVG Version: 6.00 Build 0)  -->
<svg version="1.1" id="Layer_1" xmlns="http://www.w3.org/2000/svg" xmlns:xlink="http://www.w3.org/1999/xlink" x="0px" y="0px"
	 viewBox="0 0 512 512" style="enable-background:new 0 0 512 512;" xml:space="preserve">
<path style="fill:#FFFFFF;" d="M256,507.608C236.64,498.696,50.664,409.824,50.664,288V68.496c5.416,0.544,15.36,1.312,28.44,1.312
	c42.568,0,121.496-8.416,176.896-64.072c55.4,55.656,134.328,64.072,176.896,64.072c13.08,0,23.024-0.8,28.44-1.312V288
	C461.336,409.864,275.36,498.704,256,507.608z"/>
<path style="fill:#32BEA6;" d="M256,11.344c56.24,54.176,134.4,62.464,176.896,62.464c10.248,0,18.616-0.472,24.44-0.936V288
	c0,116.496-175.2,202.976-201.336,215.2C229.904,490.984,54.664,404.584,54.664,288V72.864c5.824,0.472,14.192,0.936,24.44,0.936
	C121.6,73.808,199.76,65.52,256,11.344 M256,0C201.808,56.944,122.936,65.808,79.104,65.808c-10.84,0.088-21.68-0.512-32.44-1.808
	v224C46.664,420,256,512,256,512s209.336-92,209.336-224V64c-10.76,1.296-21.6,1.896-32.44,1.808
	C389.064,65.808,310.192,56.952,256,0z"/>
<path style="fill:#415E72;" d="M256,73.688c-56,58.872-149.072,45.6-149.072,45.6v159.52C106.928,372.8,256,438.312,256,438.312
	s149.08-65.52,149.08-159.52v-159.52C405.08,119.272,312,132.56,256,73.688z"/>
<polygon style="fill:#FFFFFF;" points="240.568,331.712 166.592,269.896 181.984,251.48 235.976,296.584 321.48,175.36 
	341.088,189.184 "/>
<g>
</g>
<g>
</g>
<g>
</g>
<g>
</g>
<g>
</g>
<g>
</g>
<g>
</g>
<g>
</g>
<g>
</g>
<g>
</g>
<g>
</g>
<g>
</g>
<g>
</g>
<g>
</g>
<g>
</g>
</svg>
