<?xml version="1.0" encoding="iso-8859-1"?>
<!-- Generator: Adobe Illustrator 19.0.0, SVG Export Plug-In . SVG Version: 6.00 Build 0)  -->
<svg version="1.1" id="Layer_1" xmlns="http://www.w3.org/2000/svg" xmlns:xlink="http://www.w3.org/1999/xlink" x="0px" y="0px"
	 viewBox="0 0 511.989 511.989" style="enable-background:new 0 0 511.989 511.989;" xml:space="preserve">
<g>
	
		<rect x="457.276" y="199.482" transform="matrix(0.7879 -0.6158 0.6158 0.7879 -47.3744 342.7458)" style="fill:#E04F5F;" width="33.192" height="81.328"/>
	<path style="fill:#E04F5F;" d="M472.336,292.982l-50.08-64.08c-22.072-6.352-41.624-19.424-55.92-37.4
		c-13.992-18.216-21.952-40.336-22.776-63.288l-50.08-64.08c0,0-47.456,68,26.984,163.2S472.336,292.982,472.336,292.982z"/>
	
		<rect x="328.514" y="34.73" transform="matrix(0.7879 -0.6158 0.6158 0.7879 26.7696 228.5104)" style="fill:#E04F5F;" width="33.192" height="81.328"/>
</g>
<path style="fill:#32BEA6;" d="M199.592,358.238v-24.64c40.112-22.712,54.216-73.648,31.496-113.752S157.44,165.63,117.336,188.35
	S63.12,261.982,85.84,302.094c7.456,13.16,18.336,24.048,31.496,31.496v24.64C39.552,361.878,0,414.47,0,449.822v29.032h316.92
	v-29.032C316.92,414.47,277.368,361.878,199.592,358.238z"/>
<g>
</g>
<g>
</g>
<g>
</g>
<g>
</g>
<g>
</g>
<g>
</g>
<g>
</g>
<g>
</g>
<g>
</g>
<g>
</g>
<g>
</g>
<g>
</g>
<g>
</g>
<g>
</g>
<g>
</g>
</svg>
