<?xml version="1.0" encoding="iso-8859-1"?>
<!-- Generator: Adobe Illustrator 19.0.0, SVG Export Plug-In . SVG Version: 6.00 Build 0)  -->
<svg version="1.1" id="Layer_1" xmlns="http://www.w3.org/2000/svg" xmlns:xlink="http://www.w3.org/1999/xlink" x="0px" y="0px"
	 viewBox="0 0 512 512" style="enable-background:new 0 0 512 512;" xml:space="preserve">
<path style="fill:#FFFFFF;" d="M256,508C116.824,508,4,395.176,4,256S116.824,4,256,4s252,112.824,252,252
	C507.84,395.112,395.112,507.84,256,508z"/>
<path style="fill:#CFDCE5;" d="M256,8c136.968,0,248,111.032,248,248S392.968,504,256,504S8,392.968,8,256
	C8.152,119.096,119.096,8.152,256,8 M256,0C114.616,0,0,114.616,0,256s114.616,256,256,256s256-114.616,256-256S397.384,0,256,0z"/>
<circle style="fill:#FFD07D;" cx="275.504" cy="122.248" r="37.4"/>
<circle style="fill:#F2B851;" cx="275.504" cy="122.248" r="18.224"/>
<circle style="fill:#FFD07D;" cx="203.376" cy="90.04" r="23.624"/>
<circle style="fill:#F2B851;" cx="203.376" cy="90.04" r="11.512"/>
<g>
	<rect x="161.76" y="390.576" style="fill:#CFDCE5;" width="43.976" height="39.016"/>
	<polygon style="fill:#CFDCE5;" points="161.736,390.576 136.536,356.488 190.816,356.488 190.816,406.176 	"/>
	<rect x="299.688" y="390.568" style="fill:#CFDCE5;" width="43.976" height="39.016"/>
	<polygon style="fill:#CFDCE5;" points="343.656,390.576 368.856,356.488 314.576,356.488 314.576,406.176 	"/>
	<rect x="375.24" y="265.04" style="fill:#CFDCE5;" width="32.632" height="61.312"/>
</g>
<g>
	<path style="fill:#AAC1CE;" d="M121.672,315.832c-24.792-0.328-44.616-20.696-44.288-45.48c0.328-24.32,19.96-43.96,44.288-44.288
		v16c-15.952,0.264-28.672,13.416-28.4,29.368c0.256,15.576,12.824,28.144,28.4,28.4V315.832z"/>
	<path style="fill:#AAC1CE;" d="M314.576,207.68h66.336c-5.712,16.56-21.704,27.336-39.2,26.4L314.576,207.68z"/>
</g>
<ellipse style="fill:#CFDCE5;" cx="252.528" cy="299.424" rx="136.16" ry="108.88"/>
<circle style="fill:#FFFFFF;" cx="321.68" cy="257.92" r="12.992"/>
<g>
</g>
<g>
</g>
<g>
</g>
<g>
</g>
<g>
</g>
<g>
</g>
<g>
</g>
<g>
</g>
<g>
</g>
<g>
</g>
<g>
</g>
<g>
</g>
<g>
</g>
<g>
</g>
<g>
</g>
</svg>
