<?xml version="1.0" encoding="iso-8859-1"?>
<!-- Generator: Adobe Illustrator 19.0.0, SVG Export Plug-In . SVG Version: 6.00 Build 0)  -->
<svg version="1.1" id="Layer_1" xmlns="http://www.w3.org/2000/svg" xmlns:xlink="http://www.w3.org/1999/xlink" x="0px" y="0px"
	 viewBox="0 0 512 512" style="enable-background:new 0 0 512 512;" xml:space="preserve">
<polygon style="fill:#415E72;" points="254.108,80.892 161.041,147.459 161.041,176.304 254.108,109.736 347.175,176.304 
	347.175,147.459 "/>
<polygon style="fill:#CFDCE5;" points="176.62,302.571 176.62,184.403 254.108,128.598 331.597,184.403 331.597,302.571 "/>
<polygon style="fill:#415E72;" points="439.392,138.645 370.575,187.869 370.575,209.202 439.392,159.978 508.217,209.202 
	508.217,187.869 "/>
<polygon style="fill:#AAC1CE;" points="382.092,302.571 382.092,215.187 439.392,173.919 496.699,215.187 496.699,302.571 "/>
<polygon style="fill:#415E72;" points="68.825,138.645 0,187.869 0,209.202 68.825,159.978 137.641,209.202 137.641,187.869 "/>
<polygon style="fill:#AAC1CE;" points="11.517,302.571 11.517,215.187 68.825,173.919 126.124,215.187 126.124,302.571 "/>
<g>
	<path style="fill:#415E72;" d="M0.874,352.28c6.422-1.152,12.94-1.701,19.465-1.637c8.115-0.819,16.238,1.47,22.724,6.414
		c4.109,3.855,6.359,9.292,6.176,14.919c0.103,9.236-5.937,17.423-14.8,20.046v0.35c6.406,2.838,10.802,8.886,11.533,15.849
		c1.375,7.352,3.402,14.569,6.065,21.564H41.554c-2.353-6.073-4.109-12.36-5.246-18.766c-2.329-10.834-6.526-14.919-15.73-15.269
		H11.04v34.035H0.874V352.28z M11.016,388.047h10.333c10.834,0,17.717-5.937,17.717-14.919c0-10.134-7.344-14.569-18.059-14.689
		c-3.37-0.095-6.732,0.215-10.023,0.938L11.016,388.047z"/>
	<path style="fill:#415E72;" d="M69.429,403.451c-0.858,9.943,6.51,18.702,16.453,19.561c0.962,0.079,1.931,0.087,2.901,0.016
		c5.357,0.167,10.683-0.827,15.618-2.909l1.749,7.344c-5.937,2.472-12.336,3.656-18.766,3.489
		c-14.458,0.882-26.897-10.118-27.779-24.584c-0.079-1.288-0.064-2.575,0.048-3.855c0-17.017,10.023-30.418,26.452-30.418
		c18.416,0,23.312,16.199,23.312,26.579c-0.016,1.598-0.135,3.187-0.35,4.769L69.429,403.451z M99.497,396.107
		c1.153-7.98-4.38-15.388-12.36-16.54c-0.62-0.087-1.24-0.135-1.86-0.151c-8.775,0.66-15.595,7.893-15.73,16.691L99.497,396.107
		L99.497,396.107z"/>
	<path style="fill:#415E72;" d="M153.355,429.784l-0.795-7.114h-0.35c-4.062,5.413-10.484,8.536-17.248,8.393
		c-8.846,0.652-16.548-5.985-17.208-14.832c-0.032-0.453-0.048-0.906-0.04-1.367c0-13.639,12.113-21.095,33.916-20.984v-1.16
		c0.827-6.367-3.656-12.201-10.031-13.035c-0.93-0.119-1.86-0.127-2.79-0.024c-5.19,0.016-10.269,1.47-14.689,4.197l-2.329-6.764
		c5.588-3.362,12.01-5.103,18.536-5.015c17.248,0,21.461,11.771,21.461,23.05v21.095c-0.079,4.523,0.238,9.045,0.938,13.512
		L153.355,429.784z M151.845,400.995c-11.183-0.23-23.893,1.749-23.893,12.717c-0.405,5,3.322,9.371,8.322,9.776
		c0.453,0.04,0.906,0.04,1.351,0.008c6.12,0.167,11.636-3.648,13.639-9.435c0.366-1.049,0.556-2.154,0.58-3.267V400.995z"/>
	<path style="fill:#415E72;" d="M178.321,347.018h10.261v82.766h-10.261V347.018z"/>
	<path style="fill:#415E72;" d="M271.595,392.952h-30.553v28.32h34.027v8.505h-44.169v-78.553h42.428v8.513h-32.286v24.823h30.553
		L271.595,392.952L271.595,392.952z"/>
	<path style="fill:#415E72;" d="M286.514,419.3c4.062,2.536,8.727,3.942,13.512,4.078c7.456,0,10.953-3.728,10.953-8.393
		c0-4.896-2.909-7.575-10.484-10.333c-10.142-3.616-14.919-9.212-14.919-15.976c0.397-9.602,8.513-17.057,18.106-16.66
		c0.453,0.016,0.898,0.056,1.351,0.111c4.848-0.048,9.625,1.152,13.87,3.497l-2.559,7.456c-3.465-2.138-7.463-3.267-11.541-3.267
		c-6.057,0-9.435,3.497-9.435,7.694c0,4.666,3.386,6.764,10.73,9.538c9.784,3.728,14.8,8.624,14.8,17.017
		c0,9.904-7.694,16.898-21.095,16.898c-5.524,0.103-10.985-1.216-15.849-3.839L286.514,419.3z"/>
	<path style="fill:#415E72;" d="M346.436,357.176v16.199h14.689v7.821h-14.689v30.426c0,6.987,1.979,10.953,7.694,10.953
		c2.003,0.032,4.006-0.207,5.945-0.699l0.469,7.694c-2.925,1.025-6.009,1.494-9.101,1.399c-4.141,0.246-8.187-1.327-11.072-4.308
		c-3.124-4.221-4.538-9.466-3.974-14.689v-30.776h-8.743v-7.805h8.743v-13.512L346.436,357.176z"/>
	<path style="fill:#415E72;" d="M403.911,429.784l-0.795-7.114h-0.374c-4.062,5.413-10.484,8.536-17.248,8.393
		c-8.846,0.652-16.548-5.985-17.208-14.832c-0.032-0.453-0.048-0.906-0.04-1.367c0-13.639,12.113-21.095,33.916-20.984v-1.16
		c0.827-6.367-3.656-12.201-10.031-13.035c-0.93-0.119-1.86-0.127-2.79-0.024c-5.19,0.016-10.269,1.47-14.689,4.197l-2.329-6.764
		c5.588-3.362,12.01-5.103,18.536-5.015c17.248,0,21.461,11.771,21.461,23.05v21.095c-0.079,4.523,0.238,9.045,0.938,13.512
		L403.911,429.784z M402.4,400.995c-11.183-0.23-23.893,1.749-23.893,12.717c-0.405,5,3.322,9.371,8.322,9.776
		c0.453,0.04,0.906,0.04,1.351,0.008c6.12,0.167,11.636-3.648,13.639-9.435c0.366-1.049,0.556-2.154,0.58-3.267V400.995z"/>
	<path style="fill:#415E72;" d="M440.759,357.176v16.199h14.689v7.821h-14.689v30.426c0,6.987,1.979,10.953,7.694,10.953
		c2.003,0.032,4.006-0.207,5.945-0.699l0.469,7.694c-2.925,1.025-6.009,1.494-9.101,1.399c-4.141,0.246-8.187-1.327-11.072-4.308
		c-3.124-4.221-4.538-9.466-3.974-14.689v-30.776h-8.743v-7.805h8.743v-13.512L440.759,357.176z"/>
	<path style="fill:#415E72;" d="M472.012,403.451c-0.858,9.943,6.502,18.702,16.445,19.569c0.97,0.087,1.939,0.087,2.909,0.016
		c5.357,0.167,10.683-0.827,15.618-2.909l1.749,7.344c-5.937,2.472-12.336,3.656-18.766,3.489
		c-14.458,0.882-26.897-10.118-27.779-24.584c-0.079-1.288-0.064-2.575,0.048-3.855c0-17.017,10.023-30.418,26.452-30.418
		c18.416,0,23.313,16.199,23.313,26.579c-0.016,1.598-0.135,3.187-0.35,4.769H472.012z M502.08,396.107
		c1.152-7.98-4.38-15.388-12.36-16.54c-0.62-0.087-1.24-0.135-1.86-0.151c-8.775,0.66-15.595,7.893-15.73,16.691L502.08,396.107
		L502.08,396.107z"/>
</g>
<g>
</g>
<g>
</g>
<g>
</g>
<g>
</g>
<g>
</g>
<g>
</g>
<g>
</g>
<g>
</g>
<g>
</g>
<g>
</g>
<g>
</g>
<g>
</g>
<g>
</g>
<g>
</g>
<g>
</g>
</svg>
