<?xml version="1.0" encoding="iso-8859-1"?>
<!-- Generator: Adobe Illustrator 19.0.0, SVG Export Plug-In . SVG Version: 6.00 Build 0)  -->
<svg version="1.1" id="Layer_1" xmlns="http://www.w3.org/2000/svg" xmlns:xlink="http://www.w3.org/1999/xlink" x="0px" y="0px"
	 viewBox="0 0 512 512" style="enable-background:new 0 0 512 512;" xml:space="preserve">
<path style="fill:#415E72;" d="M244.8,364.064V333.84c49.216-27.856,66.528-90.344,38.672-139.56s-90.344-66.528-139.56-38.672
	s-66.528,90.344-38.672,139.56c9.144,16.16,22.512,29.52,38.672,38.672v30.224C48.512,368.52,0,433.024,0,476.384V512h388.696
	v-35.616C388.696,433.024,340.192,368.52,244.8,364.064z"/>
<path style="fill:#FFFFFF;" d="M373.048,269.888c-72.32,0-130.952-58.632-130.952-130.952S300.728,7.984,373.048,7.984
	S504,66.616,504,138.936v0.008C503.92,211.232,445.336,269.808,373.048,269.888z"/>
<path style="fill:#E04F5F;" d="M373.048,16C440.952,16,496,71.048,496,138.952s-55.048,122.952-122.952,122.952
	s-122.952-55.048-122.952-122.952c0-0.008,0-0.008,0-0.016C250.176,71.072,305.184,16.072,373.048,16 M373.048,0
	c-76.744,0-138.952,62.208-138.952,138.952s62.208,138.952,138.952,138.952S512,215.696,512,138.952c0-0.008,0-0.008,0-0.016
	C511.992,62.2,449.784,0,373.048,0z"/>
<polygon style="fill:#415E72;" points="373.048,51.984 308.2,98.368 308.2,118.464 373.048,72.08 437.896,118.464 437.896,98.368 
	"/>
<polygon style="fill:#32BEA6;" points="319.056,206.44 319.056,124.104 373.048,85.224 427.04,124.104 427.04,206.44 "/>
<g>
</g>
<g>
</g>
<g>
</g>
<g>
</g>
<g>
</g>
<g>
</g>
<g>
</g>
<g>
</g>
<g>
</g>
<g>
</g>
<g>
</g>
<g>
</g>
<g>
</g>
<g>
</g>
<g>
</g>
</svg>
